<svg width="65" height="65" viewBox="0 0 65 65" fill="none" xmlns="http://www.w3.org/2000/svg">
<g opacity="0.5">
<path opacity="0.5" d="M32.5 65C50.4493 65 65 50.4493 65 32.5C65 14.5507 50.4493 0 32.5 0C14.5507 0 0 14.5507 0 32.5C0 50.4493 14.5507 65 32.5 65Z" fill="url(#paint0_linear_6_21)"/>
</g>
<path d="M32.5633 64.107C50.1341 64.107 64.378 49.8631 64.378 32.2923C64.378 14.7216 50.1341 0.477722 32.5633 0.477722C14.9926 0.477722 0.748718 14.7216 0.748718 32.2923C0.748718 49.8631 14.9926 64.107 32.5633 64.107Z" fill="#F5F5F5"/>
<path d="M32.5931 64.2327C38.8097 64.2428 44.8917 62.4226 50.0807 58.9991C48.9083 52.5923 44.4468 52.2272 44.4468 52.2272H19.8436C19.8436 52.2272 15.6335 52.5727 14.3186 58.4665C19.6685 62.2296 26.0523 64.2439 32.5931 64.2327V64.2327Z" fill="#F4A261"/>
<path d="M32.2551 46.9778C40.736 46.9778 47.6111 40.1027 47.6111 31.6218C47.6111 23.1409 40.736 16.2658 32.2551 16.2658C23.7742 16.2658 16.899 23.1409 16.899 31.6218C16.899 40.1027 23.7742 46.9778 32.2551 46.9778Z" fill="#333333"/>
<path opacity="0.1" d="M27.2991 44.4123H37.1385V52.284C37.1385 53.5885 36.6204 54.8395 35.6982 55.7621C34.776 56.6847 33.5251 57.2032 32.2206 57.2037V57.2037C30.9158 57.2037 29.6645 56.6854 28.7419 55.7627C27.8193 54.8401 27.3009 53.5888 27.3009 52.284V44.4123H27.2991Z" fill="#262424"/>
<path d="M27.611 44.0473H36.8302C36.9129 44.0473 36.9923 44.0802 37.0508 44.1387C37.1093 44.1972 37.1422 44.2765 37.1422 44.3593V51.919C37.1423 52.5653 37.0151 53.2053 36.7678 53.8024C36.5205 54.3995 36.1579 54.9421 35.7009 55.399C35.2438 55.856 34.7012 56.2184 34.1041 56.4656C33.5069 56.7128 32.8669 56.8399 32.2206 56.8396V56.8396C30.9158 56.8396 29.6645 56.3213 28.7418 55.3987C27.8192 54.4761 27.3009 53.2247 27.3009 51.9199V44.3593C27.3009 44.2768 27.3335 44.1978 27.3916 44.1393C27.4497 44.0809 27.5286 44.0478 27.611 44.0473V44.0473Z" fill="#FDB797"/>
<path opacity="0.1" d="M27.3168 48.1279C30.4879 49.3127 33.9786 49.3223 37.1562 48.1549V46.9443H27.3168V48.1279Z" fill="#262424"/>
<path d="M32.2551 48.7863C40.0442 48.7863 46.3586 42.4719 46.3586 34.6828C46.3586 26.8936 40.0442 20.5793 32.2551 20.5793C24.4659 20.5793 18.1516 26.8936 18.1516 34.6828C18.1516 42.4719 24.4659 48.7863 32.2551 48.7863Z" fill="#FDB797"/>
<path opacity="0.1" d="M22.2089 21.8541C22.2089 21.8541 28.153 33.9192 44.9198 26.9126L41.0161 20.7916L34.0961 18.308L22.2089 21.8541Z" fill="#262424"/>
<path d="M22.2089 21.6773C22.2089 21.6773 28.153 33.7423 44.9198 26.7339L41.0161 20.6129L34.0961 18.1293L22.2089 21.6773Z" fill="#333333"/>
<path d="M22.1568 20.8596C22.5576 19.619 23.2503 18.4926 24.1766 17.5752C26.9508 14.8327 31.4989 14.2544 33.8316 11.1273C34.3904 11.9952 33.9583 13.3297 32.9935 13.7022C35.2285 13.6873 37.8183 13.4917 39.0819 11.6535C39.3942 12.3805 39.4938 13.1812 39.369 13.9626C39.2442 14.744 38.9002 15.4739 38.377 16.0675C40.3577 16.1606 42.4744 17.5016 42.5992 19.4805C42.6849 20.7991 41.8542 22.0469 40.7749 22.8031C39.6956 23.5593 38.3807 23.9066 37.091 24.1906C33.3251 25.0222 19.6993 28.5022 22.1568 20.8596Z" fill="#333333"/>
<path d="M18.146 37.1301C18.8706 37.1301 19.4581 36.0286 19.4581 34.6698C19.4581 33.311 18.8706 32.2095 18.146 32.2095C17.4213 32.2095 16.8339 33.311 16.8339 34.6698C16.8339 36.0286 17.4213 37.1301 18.146 37.1301Z" fill="#FDB797"/>
<path d="M46.3567 37.1301C47.0814 37.1301 47.6688 36.0286 47.6688 34.6698C47.6688 33.311 47.0814 32.2095 46.3567 32.2095C45.6321 32.2095 45.0446 33.311 45.0446 34.6698C45.0446 36.0286 45.6321 37.1301 46.3567 37.1301Z" fill="#FDB797"/>
<defs>
<linearGradient id="paint0_linear_6_21" x1="32.5" y1="65" x2="32.5" y2="0" gradientUnits="userSpaceOnUse">
<stop stop-color="#808080" stop-opacity="0.25"/>
<stop offset="0.54" stop-color="#808080" stop-opacity="0.12"/>
<stop offset="1" stop-color="#808080" stop-opacity="0.1"/>
</linearGradient>
</defs>
</svg>
