<svg width="542" height="610" viewBox="0 0 542 610" fill="none" xmlns="http://www.w3.org/2000/svg">
<path d="M539.729 29.7794L513.924 4.06674L487.499 27.3058H344.579C338.207 27.3058 331.835 31.6136 330.351 36.9276L282.672 207.409L244.505 240.974L269.511 265.943C269.731 266.195 269.968 266.432 270.221 266.652V266.652C271.834 268.054 274.191 268.897 277 268.897H465.113C471.485 268.897 477.857 264.589 479.341 259.275L541.531 36.9227C542.335 34.0872 541.575 31.5392 539.729 29.7794Z" fill="#262424"/>
<path d="M467.728 246.179C467.516 246.179 467.306 246.13 467.116 246.035C466.925 245.941 466.759 245.804 466.631 245.635C466.502 245.466 466.414 245.27 466.374 245.062C466.333 244.853 466.342 244.638 466.398 244.434L525.13 34.4342C525.241 34.0981 525.478 33.8176 525.79 33.6511C526.103 33.4845 526.468 33.4446 526.809 33.5396C527.151 33.6346 527.443 33.8572 527.624 34.1613C527.806 34.4654 527.863 34.8276 527.785 35.1728L469.058 245.172C468.977 245.462 468.803 245.717 468.563 245.899C468.323 246.081 468.03 246.179 467.728 246.179Z" fill="#262424"/>
<path d="M445.482 259.117H271.546C271.358 259.128 271.17 259.101 270.993 259.037C270.816 258.973 270.654 258.873 270.517 258.744C270.38 258.615 270.271 258.46 270.197 258.287C270.122 258.115 270.084 257.929 270.084 257.741C270.084 257.553 270.122 257.367 270.197 257.195C270.271 257.022 270.38 256.867 270.517 256.738C270.654 256.609 270.816 256.51 270.993 256.445C271.17 256.381 271.358 256.354 271.546 256.365H445.482C445.832 256.387 446.162 256.541 446.403 256.796C446.644 257.052 446.778 257.39 446.778 257.741C446.778 258.092 446.644 258.43 446.403 258.686C446.162 258.942 445.832 259.096 445.482 259.117Z" fill="#262424"/>
<path d="M439.854 243.65H251.741C245.369 243.65 241.409 239.343 242.892 234.029L305.082 11.6759C306.571 6.36189 312.938 2.05414 319.31 2.05414H507.423C513.795 2.05414 517.755 6.36189 516.271 11.6759L454.081 234.029C452.593 239.343 446.226 243.65 439.854 243.65Z" fill="#FFF5E6"/>
<path d="M439.854 245.019H251.741C247.959 245.019 244.719 243.611 242.848 241.152C242.057 240.092 241.528 238.859 241.305 237.556C241.081 236.252 241.17 234.915 241.562 233.652L303.752 11.3042C305.42 5.3556 312.253 0.676056 319.31 0.676056H507.423C511.205 0.676056 514.445 2.08389 516.316 4.54263C517.107 5.60306 517.636 6.83528 517.859 8.13873C518.083 9.44219 517.994 10.7799 517.602 12.0428L455.406 234.4C453.739 240.359 446.911 245.019 439.854 245.019ZM319.31 3.43223C313.524 3.43223 307.737 7.29384 306.407 12.0477L244.202 234.4C243.923 235.254 243.851 236.162 243.995 237.048C244.138 237.935 244.492 238.774 245.026 239.496C246.366 241.261 248.808 242.272 251.721 242.272H439.834C445.62 242.272 451.407 238.411 452.737 233.657L514.927 11.3042C515.207 10.4507 515.278 9.5428 515.134 8.65626C514.991 7.76972 514.637 6.93032 514.103 6.20823C512.763 4.44349 510.322 3.43223 507.409 3.43223H319.31V3.43223Z" fill="#262424"/>
<path d="M319.528 146.927H291.242C287.436 146.927 285.069 144.354 285.957 141.176L296.309 104.176C297.197 101.004 301.003 98.4259 304.809 98.4259H333.096C336.902 98.4259 339.269 100.999 338.381 104.176L328.029 141.181C327.141 144.354 323.334 146.927 319.528 146.927Z" fill="#262424"/>
<path d="M386.988 146.927H358.702C354.896 146.927 352.529 144.354 353.417 141.176L363.769 104.171C364.657 100.999 368.463 98.421 372.27 98.421H400.556C404.362 98.421 406.729 100.994 405.841 104.171L395.489 141.176C394.601 144.354 390.795 146.927 386.988 146.927Z" fill="#262424"/>
<path d="M454.449 146.927H426.162C422.356 146.927 419.989 144.354 420.877 141.176L431.229 104.171C432.117 100.999 435.924 98.421 439.73 98.421H468.016C471.822 98.421 474.19 100.994 473.301 104.171L462.949 141.176C462.056 144.354 458.26 146.927 454.449 146.927Z" fill="#262424"/>
<path d="M300.194 216.049H271.908C268.102 216.049 265.735 213.476 266.623 210.299L276.955 173.299C277.843 170.126 281.65 167.548 285.456 167.548H313.742C317.548 167.548 319.915 170.121 319.027 173.299L308.715 210.319C307.807 213.476 304.001 216.049 300.194 216.049Z" fill="#262424"/>
<path d="M367.655 216.049H339.368C335.562 216.049 333.195 213.476 334.083 210.299L344.445 173.299C345.333 170.126 349.14 167.548 352.946 167.548H381.232C385.038 167.548 387.405 170.121 386.517 173.299L376.16 210.319C375.272 213.476 371.466 216.049 367.655 216.049Z" fill="#262424"/>
<path d="M435.12 216.049H406.834C403.027 216.049 400.66 213.476 401.548 210.299L411.9 173.294C412.789 170.121 416.595 167.543 420.401 167.543H448.687C452.493 167.543 454.861 170.116 453.972 173.294L443.62 210.319C442.732 213.476 438.926 216.049 435.12 216.049Z" fill="#262424"/>
<path d="M476.05 69.7043H312.844C309.038 69.7043 306.67 67.1315 307.559 63.954L317.911 26.9489C318.799 23.7763 322.605 21.1986 326.411 21.1986H489.618C493.424 21.1986 495.791 23.7714 494.903 26.9489L484.551 63.954C483.663 67.1315 479.857 69.7043 476.05 69.7043Z" fill="#262424"/>
<path d="M479.192 459.004C468.474 459.004 458.196 454.751 450.618 447.181C443.04 439.611 438.782 429.343 438.782 418.638V257.744H278.826V418.638C278.826 423.938 279.871 429.188 281.902 434.085C283.933 438.982 286.909 443.432 290.662 447.181C294.414 450.929 298.869 453.902 303.771 455.931C308.674 457.959 313.929 459.004 319.235 459.004H479.192V459.004Z" fill="#FFF5E6"/>
<path d="M479.192 460.377H319.231C308.154 460.362 297.535 455.96 289.702 448.135C281.87 440.311 277.464 429.703 277.451 418.638V257.744C277.451 257.378 277.597 257.028 277.855 256.769C278.114 256.511 278.465 256.365 278.831 256.365H438.782C439.148 256.365 439.499 256.511 439.758 256.769C440.016 257.028 440.162 257.378 440.162 257.744V418.638C440.174 428.974 444.289 438.884 451.606 446.193C458.923 453.502 468.844 457.614 479.192 457.625C479.543 457.647 479.872 457.801 480.113 458.056C480.354 458.312 480.489 458.65 480.489 459.001C480.489 459.352 480.354 459.69 480.113 459.946C479.872 460.202 479.543 460.356 479.192 460.377ZM280.196 259.117V418.638C280.207 428.974 284.323 438.884 291.64 446.193C298.957 453.502 308.878 457.614 319.226 457.625H464.255C456.359 454.598 449.567 449.252 444.773 442.292C439.979 435.333 437.407 427.086 437.398 418.638V259.117H280.201H280.196Z" fill="#262424"/>
<path d="M438.782 387.457V418.638C438.782 429.343 443.04 439.611 450.618 447.181C458.196 454.751 468.474 459.004 479.192 459.004C484.5 459.006 489.757 457.964 494.662 455.937C499.567 453.909 504.024 450.936 507.779 447.188C511.533 443.439 514.511 438.988 516.543 434.09C518.575 429.191 519.621 423.94 519.621 418.638V387.457H438.782Z" fill="#FFF5E6"/>
<path d="M479.192 460.377C468.112 460.365 457.49 455.963 449.655 448.137C441.821 440.311 437.414 429.7 437.403 418.633V387.452C437.403 387.087 437.548 386.736 437.807 386.478C438.065 386.219 438.416 386.074 438.782 386.074H519.621C519.987 386.074 520.338 386.219 520.597 386.478C520.855 386.736 521.001 387.087 521.001 387.452V418.633C520.989 429.704 516.58 440.318 508.741 448.144C500.902 455.971 490.275 460.37 479.192 460.377V460.377ZM440.162 388.83V418.638C440.162 423.758 441.171 428.827 443.133 433.558C445.094 438.288 447.969 442.586 451.593 446.206C455.218 449.827 459.52 452.698 464.256 454.658C468.991 456.617 474.066 457.625 479.192 457.625C484.317 457.625 489.393 456.617 494.128 454.658C498.863 452.698 503.166 449.827 506.79 446.206C510.414 442.586 513.289 438.288 515.251 433.558C517.212 428.827 518.222 423.758 518.222 418.638V388.83H440.162Z" fill="#262424"/>
<path d="M413.826 297.564H303.782C299.668 297.564 296.334 300.896 296.334 305.005V305.952C296.334 310.061 299.668 313.392 303.782 313.392H413.826C417.94 313.392 421.274 310.061 421.274 305.952V305.005C421.274 300.896 417.94 297.564 413.826 297.564Z" fill="#262424"/>
<path d="M352.762 345.381H303.782C299.668 345.381 296.334 348.712 296.334 352.822V353.768C296.334 357.878 299.668 361.209 303.782 361.209H352.762C356.876 361.209 360.211 357.878 360.211 353.768V352.822C360.211 348.712 356.876 345.381 352.762 345.381Z" fill="#262424"/>
<path d="M352.762 393.193H303.782C299.668 393.193 296.334 396.524 296.334 400.633V401.58C296.334 405.689 299.668 409.021 303.782 409.021H352.762C356.876 409.021 360.211 405.689 360.211 401.58V400.633C360.211 396.524 356.876 393.193 352.762 393.193Z" fill="#262424"/>
<path d="M401.762 414.216C401.591 414.247 401.436 414.335 401.323 414.467C401.21 414.599 401.146 414.766 401.142 414.94L401.246 419.579C401.246 420.819 400.626 421.334 399.489 421.334H393.4C392.264 421.334 391.643 420.839 391.643 419.579L391.852 414.835C391.848 414.662 391.784 414.495 391.671 414.363C391.558 414.231 391.403 414.142 391.231 414.112C379.465 412.669 372.652 405.556 372.652 395.656V391.225C372.623 390.987 372.649 390.746 372.727 390.52C372.805 390.294 372.933 390.089 373.103 389.92C373.272 389.751 373.477 389.622 373.704 389.544C373.93 389.466 374.171 389.441 374.409 389.47H385.138C386.274 389.47 386.894 389.965 386.894 390.808V392.246C386.894 397.505 390.299 402.041 397.316 402.041C403.921 402.041 406.709 398.021 406.709 393.896C406.709 386.575 393.311 385.44 383.386 379.025C376.984 375.109 372.548 370.053 372.548 361.288C372.548 350.462 379.257 342.833 391.127 341.078C391.298 341.047 391.453 340.958 391.566 340.827C391.679 340.695 391.743 340.528 391.748 340.354L391.539 334.787C391.539 333.548 392.159 333.033 393.296 333.033H399.181C399.419 333.004 399.66 333.029 399.886 333.107C400.113 333.185 400.318 333.314 400.487 333.483C400.657 333.652 400.785 333.857 400.863 334.083C400.941 334.309 400.967 334.55 400.938 334.787L400.834 340.24C400.838 340.414 400.902 340.581 401.015 340.713C401.128 340.844 401.283 340.933 401.454 340.964C413.86 342.302 420.863 349.832 420.863 360.451V363.851C420.891 364.089 420.866 364.329 420.788 364.555C420.71 364.781 420.581 364.987 420.412 365.156C420.243 365.325 420.037 365.453 419.811 365.531C419.585 365.609 419.343 365.635 419.106 365.606H408.268C407.131 365.606 406.511 365.195 406.511 364.575V363.544C406.511 358.091 403.414 353.134 396.189 353.134C390.408 353.134 386.899 356.108 386.899 360.763C386.899 367.465 396.293 368.496 405.995 372.724C416.625 377.468 421.27 384.066 421.27 393.138C421.274 404.525 414.357 412.57 401.762 414.216Z" fill="#262424"/>
<path d="M456.791 487.919L447.094 481.668L444.975 484.944C429.696 485.539 409.93 499.722 395.524 522.014C381.118 544.306 376.319 568.145 382.071 582.293L379.952 585.569L389.648 591.82C404.943 601.685 432.376 586.417 450.916 557.725C469.455 529.033 472.086 497.798 456.791 487.919Z" fill="#FFF5E6"/>
<path d="M400.487 596.227C396.391 596.301 392.364 595.178 388.899 592.995L379.183 586.739C378.875 586.541 378.66 586.229 378.582 585.873C378.505 585.516 378.573 585.143 378.771 584.836L380.507 582.149C377.788 574.936 377.565 565.542 379.867 554.924C382.269 543.845 387.276 532.211 394.343 521.275C401.41 510.34 409.96 500.996 419.081 494.244C427.82 487.775 436.48 484.112 444.181 483.616L445.918 480.929C446.116 480.622 446.429 480.407 446.786 480.33C447.143 480.252 447.516 480.32 447.824 480.518L457.521 486.769C465.366 491.83 469.053 502.17 467.897 515.887C466.771 529.271 461.143 544.42 452.057 558.483C442.97 572.547 431.487 583.899 419.721 590.442C412.838 594.289 406.293 596.227 400.487 596.227ZM381.857 585.178L390.398 590.685C405.032 600.104 431.661 585.009 449.759 557.001C467.857 528.993 470.676 498.507 456.042 489.089L447.501 483.581L446.132 485.703C446.012 485.888 445.849 486.042 445.658 486.152C445.466 486.261 445.251 486.323 445.03 486.332C429.815 486.922 410.382 501.571 396.68 522.772C382.979 543.974 377.619 567.694 383.346 581.787C383.429 581.992 383.462 582.214 383.441 582.434C383.42 582.654 383.347 582.865 383.227 583.051L381.857 585.178Z" fill="#262424"/>
<path d="M441.214 551.467C459.754 522.774 462.382 491.518 447.085 481.656C431.789 471.793 404.358 487.058 385.819 515.751C367.279 544.444 364.65 575.7 379.947 585.562C395.244 595.425 422.674 580.16 441.214 551.467Z" fill="#FFF5E6"/>
<path d="M390.79 589.976C386.694 590.05 382.667 588.927 379.202 586.744C371.357 581.683 367.669 571.342 368.826 557.626C369.952 544.242 375.58 529.093 384.666 515.029C393.752 500.966 405.236 489.614 417.002 483.07C429.041 476.373 439.993 475.471 447.839 480.527C455.684 485.584 459.372 495.929 458.215 509.646C457.089 523.03 451.461 538.179 442.375 552.242C433.289 566.306 421.805 577.658 410.039 584.201C403.141 588.053 396.596 589.976 390.79 589.976ZM436.251 480.047C430.926 480.047 424.837 481.866 418.361 485.475C406.982 491.805 395.847 502.825 386.998 516.521C368.9 544.529 366.081 575.016 380.716 584.434C387.663 588.896 397.588 587.979 408.714 581.802C420.093 575.472 431.229 564.452 440.077 550.755C458.176 522.747 460.994 492.261 446.36 482.842C443.335 480.946 439.822 479.975 436.251 480.047V480.047Z" fill="#262424"/>
<path d="M434.683 547.275C421.537 567.6 402.546 579.13 390.517 574.659C389.583 574.315 388.689 573.869 387.852 573.33C376.165 565.795 378.175 541.912 392.318 519.986C406.461 498.061 427.443 486.407 439.13 493.937C439.967 494.476 440.742 495.106 441.442 495.815C450.509 504.907 447.829 526.931 434.683 547.275Z" fill="#FFF5E6"/>
<path d="M396.08 576.984C394.026 577.003 391.986 576.654 390.055 575.952C389.026 575.565 388.043 575.067 387.123 574.465C381.024 570.534 378.155 562.524 379.049 551.92C379.917 541.624 384.229 530.01 391.202 519.203C398.174 508.397 406.987 499.707 416.014 494.675C425.324 489.495 433.805 488.811 439.909 492.742C440.83 493.336 441.684 494.029 442.454 494.809C452.032 504.456 449.189 527.318 435.834 547.979C424.45 565.656 408.461 576.984 396.08 576.984ZM430.877 493.015C426.867 493.015 422.272 494.393 417.364 497.119C408.714 501.932 400.243 510.32 393.514 520.735C379.783 541.986 377.585 565.062 388.616 572.175C389.369 572.659 390.173 573.06 391.013 573.37C396.472 575.392 403.707 573.866 411.459 569.107C419.473 564.15 427.309 556.154 433.527 546.532C439.745 536.91 443.829 526.48 445.03 517.151C446.191 508.129 444.588 500.896 440.504 496.787C439.875 496.149 439.178 495.582 438.425 495.097C436.166 493.683 433.542 492.959 430.877 493.015V493.015Z" fill="#262424"/>
<path d="M390.537 574.669C389.602 574.325 388.709 573.879 387.872 573.34C376.185 565.805 378.195 541.922 392.338 519.996C406.481 498.071 427.463 486.417 439.149 493.946C439.987 494.486 440.762 495.116 441.462 495.825C429.458 491.364 410.456 502.859 397.296 523.204C384.135 543.548 381.51 565.572 390.537 574.669Z" fill="#FFF5E6"/>
<path d="M390.537 576.037C390.367 576.039 390.199 576.011 390.04 575.952C389.01 575.566 388.024 575.067 387.103 574.465C381.004 570.534 378.135 562.524 379.029 551.92C379.897 541.624 384.209 530.01 391.182 519.203C398.154 508.397 406.968 499.707 415.994 494.675C425.304 489.495 433.785 488.811 439.889 492.742C440.81 493.336 441.664 494.029 442.435 494.809C442.653 495.033 442.789 495.324 442.82 495.635C442.851 495.946 442.775 496.259 442.604 496.521C442.434 496.783 442.18 496.98 441.883 497.079C441.586 497.177 441.264 497.172 440.971 497.064C435.542 495.042 428.281 496.569 420.53 501.328C412.516 506.285 404.68 514.281 398.462 523.897C392.244 533.514 388.16 543.954 386.959 553.283C385.797 562.305 387.405 569.538 391.489 573.647C391.694 573.836 391.836 574.083 391.898 574.355C391.959 574.626 391.937 574.91 391.834 575.169C391.731 575.427 391.552 575.649 391.32 575.804C391.089 575.959 390.815 576.04 390.537 576.037ZM430.877 493.015C426.867 493.015 422.272 494.393 417.364 497.119C408.714 501.932 400.243 510.32 393.514 520.735C381.143 539.879 378.13 560.501 385.723 569.602C381.257 558.231 385.103 539.587 396.174 522.45C407.245 505.313 422.649 494.15 434.882 493.525C433.575 493.178 432.229 493.006 430.877 493.015V493.015Z" fill="#262424"/>
<path d="M399.931 563.416C399.806 563.421 399.686 563.459 399.581 563.526C399.476 563.593 399.392 563.687 399.335 563.798L397.137 567.268C396.541 568.195 396.045 568.418 395.593 568.125L393.167 566.564C392.715 566.271 392.715 565.726 393.316 564.804L395.688 561.334C395.766 561.237 395.816 561.121 395.835 560.999C395.853 560.876 395.838 560.75 395.792 560.635C391.822 556.535 392.532 549.467 397.31 542.07L399.454 538.754C400 537.906 400.546 537.604 400.998 537.897L405.27 540.653C405.722 540.945 405.722 541.491 405.32 542.105L404.62 543.186C402.079 547.117 401.246 551.38 404.04 553.184C406.67 554.88 409.722 552.59 411.712 549.506C415.25 544.053 410.456 539.741 409.598 532.419C408.943 527.848 409.598 522.931 413.85 516.383C419.081 508.288 425.438 504.307 431.011 506.047C431.135 506.042 431.256 506.004 431.36 505.937C431.465 505.87 431.55 505.776 431.606 505.665L434.212 501.452C434.807 500.525 435.303 500.302 435.755 500.594L438.097 502.081C438.549 502.374 438.499 502.993 437.948 503.841L435.269 507.901C435.191 507.998 435.14 508.113 435.122 508.236C435.103 508.359 435.118 508.485 435.164 508.6C439.447 512.784 438.608 520.209 433.477 528.146L431.835 530.689C431.289 531.537 430.743 531.839 430.291 531.546L425.979 528.765C425.878 528.705 425.791 528.623 425.725 528.526C425.659 528.429 425.615 528.318 425.596 528.202C425.577 528.086 425.584 527.967 425.616 527.854C425.647 527.74 425.704 527.635 425.78 527.546L426.277 526.778C428.917 522.693 430.073 518.197 427.2 516.368C424.897 514.881 422.058 516.219 419.815 519.689C416.58 524.701 419.815 527.878 421.642 533.529C423.582 539.805 422.242 545.922 417.86 552.713C412.377 561.18 405.742 565.414 399.931 563.416Z" fill="#262424"/>
<path d="M259.244 480.483L267.412 475.218L269.194 477.979C282.056 478.475 298.706 490.422 310.839 509.209C322.972 527.997 327.012 548.054 322.168 559.971L323.95 562.732L315.782 567.996C302.879 576.3 279.803 563.446 264.172 539.285C248.54 515.123 246.361 488.806 259.244 480.483Z" fill="#FFF5E6"/>
<path d="M306.656 571.907C301.728 571.907 296.185 570.267 290.339 567.015C280.414 561.483 270.702 551.9 263.045 540.028C255.388 528.156 250.639 515.381 249.671 504.059C248.679 492.425 251.83 483.645 258.509 479.338L266.678 474.073C266.83 473.975 267 473.907 267.178 473.875C267.356 473.842 267.539 473.845 267.716 473.883C267.893 473.921 268.061 473.994 268.21 474.097C268.359 474.201 268.486 474.332 268.583 474.485L269.983 476.656C283.654 477.593 300.065 489.981 312.005 508.461C323.945 526.941 328.495 546.983 323.717 559.812L325.116 561.983C325.314 562.29 325.382 562.663 325.304 563.02C325.227 563.377 325.011 563.689 324.704 563.887L316.536 569.151C313.582 571.013 310.148 571.971 306.656 571.907V571.907ZM260.008 481.653C247.785 489.535 250.187 515.049 265.363 538.536C272.806 550.037 282.146 559.296 291.694 564.611C300.973 569.776 309.266 570.559 315.047 566.836L322.054 562.315L321.017 560.714C320.897 560.528 320.824 560.317 320.803 560.097C320.782 559.877 320.815 559.655 320.898 559.45C325.697 547.642 321.191 527.754 309.688 509.953C298.185 492.152 281.898 479.863 269.149 479.367C268.927 479.359 268.711 479.298 268.518 479.188C268.326 479.079 268.162 478.924 268.042 478.738L267.005 477.137L259.998 481.658L260.008 481.653Z" fill="#262424"/>
<path d="M323.94 562.75C336.821 554.445 334.608 528.125 318.996 503.963C303.384 479.802 280.286 466.948 267.404 475.253C254.523 483.558 256.736 509.878 272.348 534.039C287.96 558.201 311.058 571.055 323.94 562.75Z" fill="#FFF5E6"/>
<path d="M314.824 566.643C309.896 566.643 304.353 565.002 298.507 561.75C288.582 556.218 278.87 546.636 271.213 534.764C263.541 522.891 258.807 510.117 257.839 498.795C256.847 487.16 259.998 478.381 266.678 474.073C273.357 469.766 282.657 470.524 292.87 476.205C302.795 481.737 312.506 491.319 320.163 503.192C327.821 515.064 332.57 527.838 333.537 539.161C334.53 550.795 331.379 559.574 324.699 563.877C321.748 565.741 318.315 566.703 314.824 566.643V566.643ZM276.613 474.053C273.633 473.996 270.701 474.807 268.176 476.388C255.954 484.27 258.355 509.785 273.531 533.271C280.975 544.772 290.314 554.032 299.862 559.346C309.142 564.511 317.434 565.295 323.215 561.572C328.997 557.849 331.691 549.967 330.803 539.398C329.89 528.493 325.29 516.189 317.861 504.699C305.737 485.936 289.058 474.039 276.613 474.039V474.053Z" fill="#262424"/>
<path d="M277.858 530.471C288.929 547.603 304.924 557.294 315.032 553.531C315.819 553.241 316.571 552.865 317.275 552.411C327.116 546.066 325.424 525.955 313.494 507.494C301.564 489.034 283.912 479.239 274.072 485.559C273.367 486.013 272.715 486.544 272.126 487.14C264.549 494.789 266.787 513.339 277.858 530.471Z" fill="#FFF5E6"/>
<path d="M310.382 555.703C299.887 555.703 286.339 546.13 276.702 531.219C265.402 513.73 263.02 494.368 271.159 486.169C271.818 485.501 272.549 484.908 273.337 484.399C278.548 481.043 285.768 481.618 293.684 486.02C301.326 490.273 308.775 497.63 314.665 506.746C320.556 515.862 324.203 525.677 324.932 534.382C325.692 543.399 323.24 550.21 318.035 553.571C317.244 554.079 316.401 554.5 315.519 554.825C313.873 555.422 312.133 555.72 310.382 555.703V555.703ZM279.019 529.727C289.441 545.887 305.073 555.777 314.556 552.243C315.252 551.986 315.918 551.653 316.541 551.251C320.853 548.47 322.858 542.561 322.188 534.61C321.493 526.346 318 516.982 312.348 508.238C306.695 499.494 299.594 492.459 292.344 488.409C285.366 484.528 279.148 483.918 274.836 486.699C274.216 487.1 273.642 487.567 273.124 488.092C265.993 495.275 268.583 513.557 279.024 529.732L279.019 529.727Z" fill="#262424"/>
<path d="M315.037 553.531C315.824 553.241 316.576 552.865 317.28 552.411C327.121 546.066 325.429 525.955 313.499 507.494C301.569 489.034 283.917 479.239 274.077 485.559C273.372 486.013 272.72 486.544 272.131 487.14C282.24 483.373 298.239 493.064 309.311 510.191C320.382 527.318 322.635 545.878 315.037 553.531Z" fill="#FFF5E6"/>
<path d="M315.037 554.904C314.764 554.906 314.497 554.827 314.27 554.678C314.042 554.528 313.863 554.314 313.757 554.063C313.651 553.812 313.622 553.535 313.673 553.268C313.724 553 313.853 552.754 314.045 552.56C321.176 545.382 318.585 527.1 308.139 510.92C297.693 494.74 282.086 484.875 272.603 488.409C272.309 488.517 271.988 488.522 271.691 488.423C271.394 488.325 271.139 488.128 270.969 487.866C270.799 487.603 270.723 487.291 270.754 486.98C270.785 486.669 270.921 486.378 271.139 486.154C271.798 485.485 272.529 484.89 273.317 484.379C278.528 481.023 285.749 481.598 293.664 486C301.306 490.253 308.755 497.61 314.645 506.726C320.536 515.842 324.183 525.657 324.913 534.362C325.672 543.379 323.22 550.19 318.015 553.551C317.224 554.059 316.381 554.48 315.499 554.805C315.352 554.864 315.196 554.898 315.037 554.904V554.904ZM279.183 485.123C289.282 486.422 301.554 495.647 310.447 509.443C319.34 523.238 322.729 538.194 319.752 547.94C321.781 544.747 322.625 540.177 322.158 534.605C321.464 526.341 317.97 516.977 312.318 508.233C306.665 499.489 299.564 492.454 292.314 488.404C287.446 485.703 282.91 484.587 279.183 485.123V485.123Z" fill="#262424"/>
<path d="M310.616 541.922C310.576 542.018 310.562 542.124 310.577 542.228C310.592 542.332 310.634 542.43 310.7 542.512L312.625 545.407C313.122 546.185 313.122 546.646 312.75 546.894L310.71 548.212C310.328 548.46 309.911 548.267 309.41 547.489L307.549 544.46C307.502 544.367 307.432 544.288 307.344 544.231C307.257 544.175 307.157 544.142 307.053 544.138C302.522 545.773 297.341 542.774 293.311 536.543L291.505 533.752C291.044 533.038 291.009 532.518 291.381 532.265L294.979 529.94C295.361 529.692 295.778 529.886 296.11 530.401L296.696 531.308C298.835 534.62 301.827 536.737 304.179 535.215C306.393 533.787 305.668 530.654 304.011 528.057C301.033 523.451 296.071 525.642 290.15 523.764C286.409 522.683 282.865 520.462 279.297 514.95C274.891 508.139 274.032 501.883 277.312 498.215C277.352 498.118 277.366 498.012 277.351 497.908C277.336 497.804 277.294 497.706 277.228 497.625L274.891 494.155C274.394 493.376 274.394 492.915 274.767 492.668L276.752 491.394C277.134 491.146 277.59 491.394 278.052 492.117L280.24 495.587C280.287 495.68 280.357 495.759 280.445 495.816C280.532 495.872 280.633 495.905 280.736 495.91C285.431 494.07 290.85 497.293 295.172 503.975L296.557 506.116C297.018 506.83 297.053 507.356 296.681 507.603L293.048 509.948C292.968 510.003 292.876 510.039 292.78 510.055C292.684 510.071 292.585 510.066 292.491 510.041C292.397 510.015 292.309 509.97 292.234 509.908C292.159 509.846 292.098 509.768 292.056 509.68L291.634 509.031C289.411 505.591 286.354 503.147 283.937 504.713C282.002 505.963 282.042 508.605 283.937 511.524C286.667 515.743 290.235 514.36 295.207 514.92C300.701 515.604 304.944 518.752 308.641 524.463C313.181 531.601 314.174 538.159 310.616 541.922Z" fill="#262424"/>
<path d="M165.428 513.433L164.157 545.962L149.27 547.161L147.235 511.956L165.428 513.433Z" fill="#FFF5E6"/>
<path d="M149.27 548.54C148.918 548.539 148.58 548.404 148.325 548.163C148.069 547.921 147.916 547.592 147.895 547.241L145.861 512.045C145.849 511.848 145.88 511.652 145.952 511.468C146.023 511.284 146.133 511.118 146.274 510.98C146.415 510.843 146.584 510.737 146.77 510.67C146.955 510.603 147.153 510.577 147.349 510.593L165.542 512.08C165.896 512.109 166.226 512.274 166.462 512.54C166.698 512.806 166.821 513.152 166.807 513.507L165.537 546.036C165.524 546.372 165.388 546.692 165.154 546.935C164.921 547.178 164.607 547.327 164.272 547.355L149.384 548.554H149.27V548.54ZM148.704 513.458L150.565 545.679L162.827 544.688L163.999 514.697L148.704 513.458Z" fill="#262424"/>
<path d="M117.589 320.337C118.76 329.072 138.477 517.974 138.477 517.974L173.824 518.212L180.439 425.151L182.271 399.414L191.312 272.199C194.786 229.26 124.15 229.047 117.981 268.382C115.396 284.894 116.418 311.593 117.589 320.337Z" fill="#262424"/>
<path d="M145.449 505.898C145.105 505.897 144.774 505.768 144.521 505.536C144.268 505.304 144.11 504.986 144.079 504.644L123.311 276.774C123.297 276.421 123.42 276.077 123.653 275.811C123.887 275.546 124.213 275.38 124.565 275.349C124.917 275.317 125.268 275.421 125.546 275.64C125.823 275.86 126.005 276.177 126.055 276.526L146.838 504.396C146.869 504.758 146.755 505.117 146.522 505.396C146.288 505.674 145.955 505.849 145.593 505.883H145.449V505.898Z" fill="#262424"/>
<path d="M127.286 306.547C126.935 306.526 126.605 306.371 126.364 306.116C126.123 305.86 125.989 305.522 125.989 305.171C125.989 304.82 126.123 304.482 126.364 304.226C126.605 303.971 126.935 303.816 127.286 303.795C127.709 303.793 128.125 303.695 128.505 303.51C128.884 303.324 129.218 303.056 129.479 302.725C133.946 297.738 132.953 278.841 132.219 271.99C132.197 271.637 132.312 271.289 132.54 271.018C132.768 270.747 133.092 270.574 133.444 270.535C133.796 270.496 134.15 270.594 134.432 270.809C134.714 271.024 134.902 271.338 134.958 271.688C135.251 274.34 137.628 297.777 131.534 304.574C131.013 305.193 130.363 305.69 129.629 306.031C128.895 306.372 128.095 306.548 127.286 306.547V306.547Z" fill="#262424"/>
<path d="M154.689 410.761C154.505 421.765 161.14 430.797 169.517 430.941C173.755 431.011 177.626 428.79 180.434 425.151L182.266 399.414C179.581 394.457 175.189 391.175 170.177 391.096C161.825 390.947 154.877 399.756 154.689 410.761Z" fill="#FFF5E6"/>
<path d="M140.933 512.278C140.582 512.257 140.252 512.103 140.011 511.847C139.77 511.591 139.636 511.254 139.636 510.902C139.636 510.551 139.77 510.213 140.011 509.958C140.252 509.702 140.582 509.548 140.933 509.527L170.043 509.383C170.394 509.404 170.723 509.558 170.965 509.814C171.206 510.069 171.34 510.407 171.34 510.759C171.34 511.11 171.206 511.448 170.965 511.703C170.723 511.959 170.394 512.113 170.043 512.134L140.933 512.278Z" fill="#262424"/>
<path d="M215.812 601.011V607.951H144.387C144.387 607.951 144.154 604.332 143.935 598.25C143.489 586.283 143.062 564.754 144.387 542.517L170.445 540.236C170.445 540.236 183.789 562.638 201.212 581.643C203.019 583.626 207.803 586.858 209.802 588.682C213.634 592.172 215.812 596.505 215.812 601.011Z" fill="#262424"/>
<path d="M178.434 583.016C178.212 583.016 177.993 582.963 177.796 582.86C177.599 582.757 177.43 582.609 177.303 582.427C164.659 564.229 157.622 544.147 157.552 543.949C157.485 543.777 157.454 543.592 157.46 543.407C157.466 543.222 157.509 543.04 157.587 542.872C157.665 542.705 157.776 542.554 157.914 542.43C158.051 542.306 158.212 542.211 158.387 542.15C158.562 542.089 158.748 542.065 158.932 542.077C159.117 542.09 159.298 542.139 159.463 542.223C159.628 542.307 159.775 542.423 159.894 542.564C160.014 542.706 160.103 542.87 160.158 543.047C160.227 543.245 167.145 562.985 179.571 580.855C179.714 581.062 179.798 581.304 179.813 581.555C179.828 581.806 179.774 582.057 179.657 582.279C179.54 582.502 179.364 582.688 179.149 582.818C178.933 582.948 178.686 583.017 178.434 583.016Z" fill="#262424"/>
<path d="M152.52 582.402C155.11 582.402 157.21 577.659 157.21 571.808C157.21 565.958 155.11 561.215 152.52 561.215C149.93 561.215 147.831 565.958 147.831 571.808C147.831 577.659 149.93 582.402 152.52 582.402Z" fill="#FFF5E6"/>
<path d="M152.52 583.943C148.967 583.943 146.287 578.728 146.287 571.808C146.287 564.888 148.967 559.673 152.52 559.673C156.073 559.673 158.753 564.888 158.753 571.808C158.753 578.728 156.073 583.943 152.52 583.943ZM152.52 562.752C151.453 562.752 149.369 565.949 149.369 571.808C149.369 577.668 151.448 580.865 152.52 580.865C153.592 580.865 155.671 577.668 155.671 571.808C155.671 565.949 153.587 562.771 152.52 562.771V562.752Z" fill="#262424"/>
<path d="M215.812 601.011V607.951H144.387C144.387 607.951 144.154 604.332 143.935 598.25H176.653C176.653 598.25 174.807 579.75 201.197 581.643C203.004 583.626 207.788 586.858 209.788 588.682C213.633 592.172 215.812 596.505 215.812 601.011Z" fill="#FFF5E6"/>
<path d="M215.812 609.319H144.387C144.037 609.318 143.7 609.185 143.445 608.946C143.189 608.706 143.035 608.379 143.012 608.03C143.012 607.995 142.779 604.322 142.556 598.294C142.549 598.11 142.58 597.926 142.646 597.753C142.712 597.58 142.812 597.423 142.94 597.289C143.068 597.156 143.222 597.05 143.392 596.978C143.562 596.905 143.745 596.867 143.93 596.867H175.253C175.389 592.842 176.999 589.007 179.779 586.09C184.246 581.519 191.471 579.561 201.297 580.265C201.649 580.291 201.977 580.451 202.215 580.711C203.207 581.782 205.292 583.383 207.138 584.796C208.532 585.862 209.847 586.868 210.716 587.656C214.894 591.458 217.167 596.197 217.167 601.011V607.951C217.164 608.31 217.021 608.655 216.768 608.91C216.515 609.166 216.172 609.313 215.812 609.319V609.319ZM145.687 606.568H214.427V601.011C214.427 596.986 212.442 592.96 208.85 589.689C208.071 588.98 206.8 588.008 205.455 586.977C203.753 585.734 202.121 584.397 200.567 582.972C191.858 582.427 185.531 584.122 181.749 588.003C180.483 589.351 179.5 590.94 178.859 592.674C178.218 594.409 177.932 596.254 178.018 598.101C178.036 598.292 178.015 598.485 177.954 598.667C177.894 598.849 177.796 599.017 177.667 599.159C177.539 599.302 177.381 599.416 177.206 599.494C177.03 599.572 176.84 599.612 176.648 599.613H145.384C145.488 602.81 145.612 605.205 145.687 606.568V606.568Z" fill="#262424"/>
<path d="M79.9934 517.28L76.2963 544.167L61.3641 543.954L62.0242 514.092L79.9934 517.28Z" fill="#FFF5E6"/>
<path d="M76.2963 545.54L61.3592 545.327C61.1772 545.325 60.9975 545.286 60.8304 545.214C60.6634 545.142 60.5123 545.037 60.3859 544.906C60.2595 544.775 60.1603 544.621 60.094 544.451C60.0276 544.282 59.9955 544.101 59.9995 543.919L60.6595 514.053C60.6644 513.854 60.712 513.659 60.7991 513.481C60.8863 513.303 61.0109 513.146 61.1645 513.02C61.3181 512.895 61.497 512.804 61.689 512.753C61.8811 512.703 62.0817 512.695 62.2773 512.729L80.2465 515.916C80.5971 515.979 80.9102 516.174 81.1201 516.461C81.3301 516.748 81.4207 517.106 81.373 517.458L77.6759 544.346C77.6312 544.679 77.4663 544.984 77.2122 545.204C76.9582 545.424 76.6325 545.543 76.2963 545.54V545.54ZM62.7686 542.596L75.0954 542.769L78.455 518.405L63.374 515.728L62.7686 542.596Z" fill="#262424"/>
<path d="M53.3001 313.155C53.6375 321.963 52.7344 519.248 52.7344 519.248L87.9036 522.827L105.947 423.436L110.215 397.986L131.256 272.199C138.799 229.78 68.4804 222.895 58.6149 261.471C54.4712 277.661 52.9577 304.341 53.3001 313.155Z" fill="#262424"/>
<path d="M120.363 338.674C120.287 338.68 120.211 338.68 120.135 338.674C119.774 338.613 119.453 338.412 119.241 338.115C119.028 337.817 118.943 337.448 119.004 337.088L129.896 271.99C129.921 271.807 129.982 271.63 130.076 271.471C130.17 271.312 130.295 271.173 130.444 271.063C130.593 270.953 130.763 270.874 130.943 270.831C131.123 270.788 131.31 270.782 131.492 270.812C131.675 270.843 131.849 270.91 132.006 271.01C132.162 271.109 132.296 271.239 132.401 271.391C132.506 271.544 132.579 271.716 132.616 271.897C132.653 272.078 132.653 272.265 132.616 272.446L121.718 337.524C121.664 337.844 121.499 338.135 121.251 338.346C121.003 338.556 120.689 338.672 120.363 338.674V338.674Z" fill="#262424"/>
<path d="M60.9672 507.891C60.6021 507.884 60.2546 507.734 60.0006 507.472C59.7467 507.209 59.6071 506.858 59.6124 506.493L63.1209 270.3C63.1127 270.112 63.1429 269.925 63.2097 269.75C63.2765 269.574 63.3785 269.414 63.5094 269.28C63.6403 269.145 63.7974 269.038 63.971 268.967C64.1446 268.895 64.3311 268.859 64.519 268.862C64.7069 268.864 64.8923 268.905 65.0638 268.982C65.2352 269.059 65.3892 269.17 65.5162 269.309C65.6431 269.447 65.7405 269.61 65.8022 269.787C65.8639 269.964 65.8887 270.152 65.8751 270.34L62.3418 506.523C62.3392 506.886 62.1933 507.233 61.936 507.489C61.6786 507.745 61.3305 507.89 60.9672 507.891V507.891Z" fill="#262424"/>
<path d="M64.8032 300.37C64.6212 300.37 64.4392 300.362 64.2573 300.345C64.0716 300.335 63.89 300.288 63.7232 300.206C63.5564 300.123 63.4079 300.009 63.2866 299.868C63.1654 299.727 63.0739 299.563 63.0177 299.386C62.9614 299.209 62.9416 299.023 62.9593 298.838C62.977 298.653 63.032 298.473 63.1209 298.31C63.2098 298.147 63.3307 298.004 63.4766 297.888C63.6224 297.773 63.79 297.689 63.9693 297.64C64.1487 297.591 64.3361 297.579 64.5203 297.604C64.9408 297.64 65.3641 297.582 65.7591 297.434C66.1542 297.286 66.5109 297.051 66.803 296.746C71.7258 292.206 72.5397 273.299 72.4404 266.399C72.4378 266.218 72.4709 266.038 72.5378 265.87C72.6047 265.702 72.7042 265.548 72.8304 265.418C72.9567 265.289 73.1073 265.185 73.2737 265.113C73.4401 265.042 73.619 265.003 73.8002 265.001C74.1626 265.001 74.5106 265.143 74.7687 265.397C75.0269 265.652 75.1745 265.997 75.1797 266.359C75.2194 269.026 75.3683 292.582 68.659 298.774C67.6284 299.783 66.2466 300.355 64.8032 300.37V300.37Z" fill="#262424"/>
<path d="M81.6707 406.676C80.445 417.616 86.2015 427.233 94.5236 428.165C98.7368 428.636 102.801 426.787 105.937 423.431L110.215 397.986C108.012 392.781 103.952 389.113 98.97 388.568C90.6429 387.631 82.8965 395.716 81.6707 406.676Z" fill="#FFF5E6"/>
<path d="M84.8417 516.432H84.7177L55.7268 513.825C55.3768 513.775 55.0593 513.592 54.84 513.315C54.6206 513.039 54.5161 512.688 54.5479 512.336C54.5797 511.985 54.7455 511.658 55.0111 511.425C55.2766 511.192 55.6216 511.07 55.9749 511.083L84.9658 513.691C85.3061 513.738 85.6163 513.911 85.8359 514.175C86.0555 514.439 86.1686 514.775 86.1531 515.118C86.1376 515.461 85.9946 515.785 85.752 516.028C85.5095 516.272 85.1849 516.415 84.8417 516.432V516.432Z" fill="#262424"/>
<path d="M127.281 601.011V607.951H55.8558C55.8558 607.951 55.6225 604.332 55.4042 598.25C54.9575 586.283 54.5308 564.754 55.8558 542.517L81.9139 540.236C81.9139 540.236 95.258 562.638 112.681 581.643C114.488 583.626 119.272 586.858 121.271 588.682C125.103 592.172 127.281 596.505 127.281 601.011Z" fill="#262424"/>
<path d="M89.9035 583.016C89.6813 583.016 89.4624 582.963 89.2654 582.86C89.0684 582.757 88.8992 582.609 88.7721 582.427C76.1276 564.229 69.0908 544.147 69.0213 543.949C68.9545 543.777 68.9231 543.592 68.9291 543.407C68.9351 543.222 68.9784 543.04 69.0563 542.872C69.1342 542.705 69.2452 542.554 69.3826 542.43C69.52 542.306 69.681 542.211 69.8561 542.15C70.0312 542.089 70.2166 542.065 70.4015 542.077C70.5863 542.09 70.7668 542.139 70.932 542.223C71.0973 542.307 71.2439 542.423 71.3633 542.564C71.4826 542.706 71.5722 542.87 71.6266 543.047C71.6961 543.245 78.6138 562.985 91.0399 580.855C91.183 581.062 91.2667 581.304 91.2819 581.555C91.2971 581.806 91.2432 582.057 91.1262 582.279C91.0091 582.502 90.8333 582.688 90.6178 582.818C90.4023 582.948 90.1553 583.017 89.9035 583.016V583.016Z" fill="#262424"/>
<path d="M63.9893 582.402C66.5793 582.402 68.6789 577.659 68.6789 571.808C68.6789 565.958 66.5793 561.215 63.9893 561.215C61.3993 561.215 59.2997 565.958 59.2997 571.808C59.2997 577.659 61.3993 582.402 63.9893 582.402Z" fill="#FFF5E6"/>
<path d="M63.9893 583.943C60.4362 583.943 57.7564 578.728 57.7564 571.808C57.7564 564.888 60.4362 559.673 63.9893 559.673C67.5425 559.673 70.2222 564.888 70.2222 571.808C70.2222 578.728 67.5375 583.943 63.9893 583.943ZM63.9893 562.752C62.9224 562.752 60.8381 565.949 60.8381 571.808C60.8381 577.668 62.9174 580.865 63.9893 580.865C65.0612 580.865 67.1405 577.668 67.1405 571.808C67.1405 565.949 65.0562 562.771 63.9893 562.771V562.752Z" fill="#262424"/>
<path d="M127.281 601.011V607.951H55.8558C55.8558 607.951 55.6225 604.332 55.4042 598.25H88.122C88.122 598.25 86.2759 579.75 112.666 581.643C114.473 583.626 119.257 586.858 121.257 588.682C125.103 592.172 127.281 596.505 127.281 601.011Z" fill="#FFF5E6"/>
<path d="M127.286 609.319H55.8557C55.5057 609.318 55.1689 609.185 54.9137 608.946C54.6584 608.706 54.5038 608.379 54.4811 608.03C54.4811 607.995 54.2479 604.322 54.0246 598.294C54.0179 598.11 54.0485 597.926 54.1146 597.753C54.1806 597.58 54.2807 597.423 54.409 597.289C54.5372 597.156 54.691 597.05 54.8611 596.978C55.0312 596.905 55.2142 596.867 55.3992 596.867H86.7225C86.8577 592.842 88.4683 589.007 91.2483 586.09C95.7145 581.519 102.94 579.561 112.766 580.265C113.118 580.291 113.446 580.451 113.684 580.711C114.676 581.782 116.761 583.383 118.607 584.796C120.001 585.862 121.316 586.868 122.185 587.656C126.363 591.458 128.636 596.197 128.636 601.011V607.951C128.633 608.31 128.491 608.653 128.239 608.909C127.987 609.164 127.645 609.311 127.286 609.319V609.319ZM57.1609 606.568H125.906V601.011C125.906 596.986 123.921 592.96 120.329 589.689C119.549 588.98 118.279 588.008 116.934 586.977C115.232 585.734 113.6 584.397 112.046 582.972C103.337 582.427 97.0097 584.122 93.2283 588.003C91.9615 589.351 90.9785 590.94 90.3375 592.674C89.6965 594.409 89.4105 596.254 89.4965 598.101C89.5152 598.292 89.4937 598.485 89.4334 598.667C89.3731 598.849 89.2754 599.017 89.1464 599.159C89.0175 599.302 88.8601 599.416 88.6846 599.494C88.509 599.572 88.3191 599.612 88.1269 599.613H56.8631C56.9574 602.81 57.0815 605.205 57.1559 606.568H57.1609Z" fill="#262424"/>
<path d="M265.864 89.4585C265.864 89.4585 286.051 65.2428 286.855 65.2874C290.89 65.5155 313.29 74.944 322.233 78.7659C322.695 78.9637 323.111 79.2574 323.451 79.6277C323.791 79.9979 324.048 80.4362 324.206 80.9134C324.364 81.3906 324.418 81.8959 324.365 82.3957C324.313 82.8955 324.154 83.3784 323.9 83.8123C323.547 84.418 323.022 84.9056 322.391 85.2135C321.76 85.5213 321.053 85.6358 320.357 85.5423L303.981 83.3314L300.601 89.0421C299.528 90.8556 297.919 92.2933 295.996 93.1585C294.073 94.0236 291.929 94.274 289.858 93.8753L285.277 92.983L277.948 102.798L265.864 89.4585Z" fill="#FFF5E6"/>
<path d="M277.947 104.176C277.761 104.174 277.577 104.135 277.407 104.06C277.236 103.985 277.082 103.876 276.955 103.74L264.851 90.4003C264.629 90.1546 264.502 89.8369 264.495 89.5055C264.487 89.1741 264.6 88.8512 264.812 88.5959C264.861 88.5364 269.923 82.4689 275.015 76.4807C285.754 63.8648 286.026 63.8796 286.925 63.9292C291.004 64.1572 311.132 72.5397 322.769 77.5167C323.881 77.9755 324.786 78.8247 325.314 79.9042C325.843 80.9837 325.957 82.219 325.637 83.3773C325.317 84.5355 324.583 85.5366 323.575 86.192C322.567 86.8474 321.353 87.1118 320.163 86.9353L304.71 84.8483L301.797 89.7757C300.575 91.8359 298.745 93.4685 296.558 94.4499C294.371 95.4313 291.933 95.7137 289.58 95.2583L285.848 94.5346L279.064 103.656C278.943 103.819 278.787 103.953 278.608 104.049C278.428 104.145 278.23 104.2 278.027 104.211H277.947V104.176ZM267.665 89.4188L277.838 100.632L284.141 92.1601C284.295 91.9514 284.506 91.7907 284.749 91.6968C284.991 91.6029 285.255 91.5797 285.51 91.6297L290.091 92.522C291.886 92.8688 293.744 92.6529 295.412 91.904C297.079 91.155 298.474 89.9096 299.405 88.3381L302.785 82.6275C302.923 82.3952 303.127 82.2085 303.37 82.0904C303.613 81.9724 303.886 81.9282 304.154 81.9633L320.531 84.1742C321.051 84.2431 321.578 84.122 322.015 83.8332C322.453 83.5443 322.771 83.1072 322.911 82.6024C323.052 82.0976 323.004 81.5592 322.778 81.0865C322.553 80.6137 322.163 80.2385 321.682 80.03C303.688 72.3315 290.711 67.3248 287.237 66.7201C285.049 68.8219 274.598 81.1453 267.69 89.4188H267.665Z" fill="#262424"/>
<path d="M286.463 100.106C286.463 100.106 269.591 125.814 257.591 141.984C252.525 148.8 248.316 153.921 246.599 154.704C244.882 155.488 237.989 155.071 229.146 154.105C208.195 151.799 176.296 146.371 176.296 146.371C176.296 146.371 151.979 141.251 149.002 117.456C146.024 93.6621 164.589 91.8775 175.139 94.3065L232.372 106.952L267.774 83.0885L286.463 100.106Z" fill="#262424"/>
<path d="M278.027 105.614C277.69 105.614 277.365 105.491 277.114 105.267L262.226 92.0461C261.974 91.7983 261.826 91.4629 261.814 91.1094C261.802 90.7559 261.926 90.4112 262.162 90.1469C262.397 89.8825 262.725 89.7187 263.078 89.6893C263.431 89.6599 263.782 89.7671 264.057 89.9889L278.945 103.21C279.153 103.396 279.299 103.64 279.365 103.911C279.431 104.182 279.412 104.466 279.313 104.727C279.214 104.987 279.037 105.211 278.808 105.37C278.578 105.528 278.306 105.613 278.027 105.614V105.614Z" fill="#262424"/>
<path d="M257.601 141.984C252.535 148.8 248.326 153.921 246.609 154.704C244.892 155.488 237.999 155.071 229.156 154.105V154.06C229.155 150.768 230.123 147.549 231.941 144.803C233.759 142.057 236.345 139.906 239.378 138.619C242.411 137.331 245.756 136.964 248.997 137.562C252.237 138.161 255.23 139.699 257.601 141.984V141.984Z" fill="#FFF5E6"/>
<path d="M53.6425 115.171L51.5831 281.424C51.5831 281.424 56.2528 282.068 64.3069 282.812V263.667C64.3051 263.255 64.3949 262.848 64.5698 262.474C64.7448 262.101 65.0005 261.771 65.3186 261.508C65.6367 261.245 66.0092 261.056 66.4092 260.955C66.8092 260.853 67.2268 260.842 67.6318 260.921C68.2833 261.06 68.8661 261.421 69.2807 261.942C69.6953 262.462 69.9159 263.111 69.9046 263.776V283.298C96.3696 285.449 147.32 287.511 194.662 277.642C194.662 277.642 190.384 133.433 175.134 94.3066C175.134 94.3066 146.6 83.5 115.877 84.1196C95.0695 84.536 73.9491 94.2669 62.4857 100.478C59.8368 101.92 57.6209 104.042 56.0665 106.625C54.512 109.208 53.6753 112.158 53.6425 115.171V115.171Z" fill="#262424"/>
<path d="M185.362 146.594C185.027 146.594 184.704 146.471 184.453 146.249C184.201 146.027 184.04 145.722 183.997 145.39C181.328 123.97 178.305 108.043 175.015 98.0542C174.955 97.8815 174.93 97.6986 174.942 97.5161C174.953 97.3337 175.001 97.1554 175.082 96.9915C175.163 96.8277 175.276 96.6816 175.414 96.5617C175.552 96.4419 175.713 96.3507 175.887 96.2935C176.061 96.2363 176.244 96.2142 176.427 96.2285C176.609 96.2428 176.787 96.2932 176.949 96.3768C177.112 96.4604 177.257 96.5755 177.374 96.7153C177.492 96.8552 177.581 97.0171 177.636 97.1916C180.985 107.349 184.047 123.464 186.737 145.048C186.782 145.41 186.681 145.775 186.457 146.063C186.233 146.351 185.903 146.539 185.541 146.585L185.362 146.594Z" fill="#262424"/>
<path d="M110.528 278.152C99.5307 278.152 88.1368 277.805 76.8918 276.938C76.7135 276.931 76.5383 276.888 76.3769 276.813C76.2154 276.737 76.0709 276.629 75.9522 276.496C75.8334 276.363 75.7427 276.207 75.6856 276.039C75.6285 275.87 75.6062 275.691 75.6199 275.513C75.6336 275.336 75.6831 275.162 75.7654 275.004C75.8478 274.846 75.9612 274.706 76.099 274.593C76.2368 274.48 76.396 274.395 76.5672 274.345C76.7384 274.295 76.918 274.28 77.0952 274.3C130.641 278.45 187.625 270.602 188.196 270.523C188.533 270.495 188.868 270.597 189.133 270.808C189.397 271.019 189.571 271.323 189.618 271.658C189.665 271.993 189.582 272.333 189.386 272.609C189.189 272.885 188.895 273.075 188.563 273.14C162.679 276.407 136.618 278.081 110.528 278.152V278.152Z" fill="#262424"/>
<path d="M97.6599 98.4953C101.868 108.271 109.773 115.072 114.721 116.624C115.991 109.649 119.495 100.885 119.495 100.885C123.39 106.238 125.45 113.317 125.946 116.549C138.551 113.079 139.99 98.1434 139.99 98.1434C139.39 93.0576 136.909 88.3795 133.033 85.0273C129.158 81.6751 124.168 79.8909 119.043 80.025C99.2379 80.6893 97.6599 98.4953 97.6599 98.4953Z" fill="#FFF5E6"/>
<path d="M114.716 118.002C114.576 118.001 114.437 117.98 114.304 117.937C108.845 116.217 100.682 109.014 96.3895 99.0406C96.3004 98.8312 96.2645 98.603 96.2852 98.3764C96.2852 98.188 98.2157 79.3509 119.004 78.642C124.479 78.475 129.817 80.3701 133.959 83.9512C138.101 87.5323 140.745 92.5379 141.365 97.9748C141.376 98.0753 141.376 98.1767 141.365 98.2772C141.3 98.9266 139.682 114.209 126.313 117.883C126.126 117.934 125.93 117.945 125.738 117.915C125.547 117.886 125.363 117.816 125.2 117.711C125.037 117.605 124.898 117.467 124.793 117.304C124.687 117.142 124.617 116.959 124.586 116.767C123.737 112.245 122.126 107.899 119.822 103.914C118.706 106.992 116.895 112.341 116.071 116.876C116.012 117.192 115.844 117.478 115.597 117.683C115.349 117.889 115.038 118.001 114.716 118.002V118.002ZM119.49 99.5066C119.708 99.5068 119.923 99.5585 120.117 99.6576C120.311 99.7567 120.479 99.9003 120.606 100.077C124.199 105.034 126.199 111.151 127.008 114.76C136.645 111.116 138.422 99.5661 138.605 98.1483C138.026 93.4296 135.705 89.0966 132.096 85.9976C128.487 82.8986 123.85 81.2566 119.093 81.3932C102.012 81.9732 99.3918 95.873 99.0692 98.2871C102.861 106.863 109.386 112.663 113.694 114.73C114.86 109.838 116.371 105.034 118.215 100.354C118.306 100.126 118.456 99.9256 118.651 99.7748C118.845 99.624 119.077 99.5279 119.321 99.4967L119.49 99.5066Z" fill="#262424"/>
<path d="M109.223 57.4006L109.545 69.5655L110.096 90.3855C117.103 95.2782 123.921 95.7937 130.492 90.8812L129.529 81.2148L128.055 66.5614L109.223 57.4006Z" fill="#FFF5E6"/>
<path d="M120.959 95.6896C117.184 95.6896 113.293 94.295 109.287 91.5058C109.11 91.3827 108.965 91.22 108.862 91.0306C108.76 90.8412 108.703 90.6304 108.697 90.4152L107.823 57.4403C107.817 57.2035 107.872 56.969 107.983 56.7597C108.094 56.5503 108.257 56.373 108.456 56.245C108.656 56.1169 108.885 56.0424 109.122 56.0286C109.359 56.0148 109.595 56.0623 109.808 56.1663L128.666 65.3122C128.877 65.415 129.059 65.57 129.193 65.7626C129.328 65.9552 129.411 66.179 129.435 66.4127L131.856 90.7027C131.88 90.9388 131.842 91.1768 131.746 91.3939C131.651 91.611 131.501 91.7998 131.311 91.942C127.981 94.4454 124.527 95.6896 120.959 95.6896ZM111.436 89.6369C117.753 93.8307 123.52 94.0141 129.023 90.202L126.755 67.4488L110.642 59.6214L111.436 89.6369Z" fill="#262424"/>
<path d="M115.713 60.5583C115.808 66.0558 115.307 84.769 130.07 86.7915L128.055 66.5614L115.713 60.5583Z" fill="#262424"/>
<path d="M151.662 155.111H18.0167C15.4267 155.111 13.3271 157.208 13.3271 159.795V252.063C13.3271 254.65 15.4267 256.747 18.0167 256.747H151.662C154.252 256.747 156.351 254.65 156.351 252.063V159.795C156.351 157.208 154.252 155.111 151.662 155.111Z" fill="#FFF5E6"/>
<path d="M151.667 258.125H18.0167C16.4101 258.121 14.8704 257.482 13.7348 256.346C12.5992 255.211 11.9601 253.673 11.9575 252.068V159.795C11.9588 158.188 12.5987 156.647 13.7366 155.51C14.8745 154.373 16.4174 153.734 18.0267 153.733H151.667C153.276 153.734 154.819 154.373 155.957 155.51C157.095 156.647 157.735 158.188 157.736 159.795V252.068C157.733 253.674 157.093 255.214 155.955 256.35C154.817 257.485 153.275 258.124 151.667 258.125ZM18.0167 156.504C17.1393 156.505 16.2981 156.854 15.6777 157.474C15.0572 158.093 14.7081 158.934 14.7067 159.81V252.068C14.7081 252.944 15.0572 253.784 15.6777 254.404C16.2981 255.024 17.1393 255.373 18.0167 255.374H151.667C152.544 255.373 153.385 255.024 154.006 254.404C154.626 253.784 154.975 252.944 154.977 252.068V159.795C154.975 158.919 154.626 158.079 154.006 157.459C153.385 156.839 152.544 156.49 151.667 156.489H18.0167V156.504Z" fill="#262424"/>
<path d="M151.662 155.111H102.598C100.008 155.111 97.908 157.208 97.908 159.795V252.063C97.908 254.65 100.008 256.747 102.598 256.747H151.662C154.252 256.747 156.351 254.65 156.351 252.063V159.795C156.351 157.208 154.252 155.111 151.662 155.111Z" fill="#FFF5E6"/>
<path d="M151.667 258.125H102.598C100.989 258.124 99.447 257.485 98.3093 256.35C97.1715 255.214 96.5311 253.674 96.5284 252.068V159.795C96.5298 158.188 97.1696 156.647 98.3075 155.51C99.4454 154.373 100.988 153.734 102.598 153.733H151.667C153.276 153.734 154.819 154.373 155.957 155.51C157.095 156.647 157.735 158.188 157.736 159.795V252.068C157.733 253.674 157.093 255.214 155.955 256.35C154.817 257.485 153.275 258.124 151.667 258.125ZM102.598 156.504C101.72 156.505 100.879 156.854 100.259 157.474C99.6381 158.093 99.2889 158.934 99.2876 159.81V252.068C99.2889 252.944 99.6381 253.784 100.259 254.404C100.879 255.024 101.72 255.373 102.598 255.374H151.667C152.544 255.373 153.385 255.024 154.006 254.404C154.626 253.784 154.975 252.944 154.977 252.068V159.795C154.975 158.919 154.626 158.079 154.006 157.459C153.385 156.839 152.544 156.49 151.667 156.489H102.598V156.504Z" fill="#262424"/>
<path d="M150.833 178.811H103.426C103.075 178.79 102.746 178.636 102.505 178.38C102.264 178.124 102.129 177.787 102.129 177.435C102.129 177.084 102.264 176.746 102.505 176.491C102.746 176.235 103.075 176.081 103.426 176.06H150.828C151.016 176.048 151.204 176.075 151.381 176.139C151.558 176.202 151.72 176.302 151.857 176.43C151.994 176.559 152.104 176.714 152.179 176.887C152.254 177.059 152.292 177.245 152.293 177.433C152.293 177.621 152.255 177.807 152.181 177.979C152.106 178.152 151.998 178.308 151.861 178.437C151.724 178.566 151.562 178.666 151.386 178.73C151.209 178.794 151.021 178.822 150.833 178.811V178.811Z" fill="#262424"/>
<path d="M91.3575 178.811H20.0811C19.8933 178.822 19.7052 178.795 19.5283 178.731C19.3515 178.667 19.1896 178.567 19.0526 178.439C18.9156 178.31 18.8065 178.154 18.7319 177.982C18.6573 177.809 18.6188 177.623 18.6188 177.435C18.6188 177.247 18.6573 177.061 18.7319 176.889C18.8065 176.716 18.9156 176.561 19.0526 176.432C19.1896 176.303 19.3515 176.204 19.5283 176.14C19.7052 176.076 19.8933 176.048 20.0811 176.06H91.3575C91.7084 176.081 92.0381 176.235 92.2791 176.491C92.5201 176.746 92.6544 177.084 92.6544 177.435C92.6544 177.787 92.5201 178.124 92.2791 178.38C92.0381 178.636 91.7084 178.79 91.3575 178.811V178.811Z" fill="#262424"/>
<path d="M84.3852 225.254C84.3852 225.254 107.739 240.894 110.662 243.814C113.584 246.734 110.399 261.313 110.662 262.373C110.925 263.434 83.3232 265.288 80.1422 262.373C76.9612 259.459 73.825 243.041 73.825 243.041L84.3852 225.254Z" fill="#FFF5E6"/>
<path d="M92.1068 265.313C84.9409 265.313 80.6087 264.664 79.2043 263.385C75.8546 260.316 73.0012 246.094 72.4603 243.274C72.3971 242.943 72.4571 242.601 72.629 242.312L83.1941 224.551C83.2899 224.39 83.4173 224.251 83.5687 224.141C83.72 224.031 83.8921 223.953 84.0745 223.912C84.2569 223.871 84.4458 223.867 84.6298 223.901C84.8137 223.935 84.9888 224.006 85.1444 224.109C86.1022 224.749 108.647 239.858 111.624 242.837C114.066 245.276 113.317 252.365 112.339 259.424C112.185 260.539 112.011 261.803 112.011 262.155C112.057 262.456 112.01 262.764 111.875 263.037C111.74 263.31 111.524 263.535 111.257 263.682C109.57 264.674 99.3074 265.169 95.8485 265.264C94.5285 265.297 93.2813 265.313 92.1068 265.313ZM75.269 243.269C76.4699 249.48 79.0504 259.508 81.0702 261.377C83.1842 263.315 104.707 262.557 109.312 261.491C109.366 260.956 109.466 260.202 109.624 259.072C110.121 255.627 111.366 246.481 109.689 244.81C107.505 242.629 92.0125 232.061 84.8268 227.232L75.269 243.269Z" fill="#262424"/>
<path d="M0.861401 186.351C-0.284936 193.291 -0.0963546 199.294 1.88368 203.636C4.48403 209.322 9.1587 214.478 14.9202 219.073C36.6658 236.423 73.9342 245.797 73.9342 245.797L87.1295 225.686L47.4841 190.787C47.4841 190.787 91.0548 108.583 75.7703 100.567C53.2555 88.824 5.1887 160.098 0.861401 186.351Z" fill="#262424"/>
<path d="M0.861367 186.351C-0.309783 193.291 -0.0963893 199.294 1.88365 203.636C4.484 209.322 9.15867 214.478 14.9201 219.073C17.5096 216.317 19.2381 212.866 19.8938 209.144C20.5495 205.422 20.1039 201.589 18.6117 198.116C17.1194 194.642 14.6453 191.679 11.4925 189.59C8.33962 187.5 4.64502 186.374 0.861367 186.351V186.351Z" fill="#FFF5E6"/>
<path d="M25.1478 198.917C24.8197 198.914 24.5037 198.793 24.2563 198.578C24.0089 198.363 23.8465 198.067 23.7981 197.742C23.7497 197.418 23.8185 197.088 23.9922 196.81C24.1659 196.531 24.4331 196.324 24.7458 196.225L47.0771 189.449C47.2537 189.383 47.442 189.354 47.6303 189.363C47.8186 189.373 48.003 189.421 48.172 189.504C48.3411 189.588 48.4912 189.705 48.6131 189.849C48.735 189.992 48.8262 190.16 48.8809 190.34C48.9356 190.52 48.9527 190.71 48.9312 190.897C48.9097 191.084 48.8501 191.265 48.7559 191.428C48.6617 191.591 48.5351 191.733 48.3837 191.846C48.2324 191.958 48.0596 192.038 47.876 192.081L25.5448 198.858C25.4161 198.897 25.2823 198.917 25.1478 198.917V198.917Z" fill="#262424"/>
<path d="M73.9342 247.175C73.8205 247.176 73.7071 247.162 73.5967 247.135C73.2444 247.046 38.1694 238.089 16.2451 221.854C16.0904 221.75 15.9583 221.616 15.857 221.459C15.7557 221.303 15.6871 221.127 15.6556 220.944C15.624 220.76 15.6301 220.572 15.6733 220.391C15.7166 220.209 15.7963 220.039 15.9074 219.889C16.0186 219.74 16.159 219.614 16.3201 219.52C16.4812 219.426 16.6597 219.366 16.8448 219.343C17.0299 219.32 17.2178 219.335 17.397 219.386C17.5763 219.438 17.7432 219.525 17.8877 219.643C37.3705 234.088 67.6119 242.699 73.3238 244.235L85.3181 225.944L46.5709 191.833C46.3391 191.629 46.1827 191.353 46.1269 191.049C46.0711 190.745 46.1191 190.431 46.2633 190.158C46.5809 189.563 77.8794 130.246 77.5866 108.365C77.5732 108.178 77.5983 107.99 77.6603 107.812C77.7223 107.635 77.8199 107.472 77.9471 107.334C78.0743 107.196 78.2285 107.085 78.4001 107.009C78.5718 106.932 78.7573 106.891 78.9452 106.889C79.1332 106.887 79.3197 106.923 79.4932 106.995C79.6667 107.067 79.8236 107.174 79.9543 107.309C80.085 107.444 80.1867 107.604 80.2531 107.78C80.3196 107.955 80.3494 108.143 80.3407 108.33C80.6286 129.646 53.4341 182.43 49.206 190.505L88.0376 224.709C88.2857 224.928 88.4468 225.229 88.4914 225.556C88.536 225.884 88.4613 226.217 88.2807 226.494L75.0904 246.555C74.9644 246.746 74.7926 246.903 74.5908 247.011C74.3889 247.119 74.1633 247.176 73.9342 247.175V247.175Z" fill="#262424"/>
<path d="M66.1828 235.07C65.9314 235.069 65.6851 235 65.4703 234.869C65.2554 234.739 65.0804 234.553 64.9639 234.33C64.8474 234.108 64.794 233.858 64.8094 233.607C64.8248 233.356 64.9085 233.115 65.0513 232.908L76.465 216.52C76.5642 216.362 76.6944 216.226 76.8478 216.119C77.0012 216.013 77.1747 215.939 77.3576 215.901C77.5406 215.864 77.7292 215.864 77.9121 215.902C78.095 215.939 78.2684 216.013 78.4217 216.12C78.5751 216.226 78.7051 216.363 78.8041 216.521C78.9031 216.679 78.9689 216.856 78.9975 217.04C79.0262 217.224 79.017 217.413 78.9707 217.593C78.9244 217.774 78.8418 217.944 78.7279 218.091L67.3142 234.48C67.1874 234.662 67.0182 234.811 66.8212 234.914C66.6241 235.017 66.405 235.07 66.1828 235.07V235.07Z" fill="#262424"/>
<path d="M72.8659 238.376C74.2423 237.844 74.9262 236.298 74.3934 234.923C73.8606 233.548 72.3129 232.865 70.9365 233.397C69.5601 233.929 68.8763 235.475 69.4091 236.85C69.9418 238.225 71.4896 238.908 72.8659 238.376Z" fill="#FFF5E6"/>
<path d="M72.0038 241.449C70.9914 241.449 70.0159 241.07 69.2687 240.388C68.5214 239.705 68.0564 238.769 67.9647 237.762C67.873 236.755 68.1613 235.75 68.7731 234.944C69.3849 234.138 70.276 233.59 71.2716 233.407C72.2672 233.223 73.2954 233.418 74.1545 233.953C75.0136 234.488 75.6417 235.324 75.9154 236.298C76.1892 237.272 76.0889 238.312 75.6342 239.216C75.1795 240.119 74.4033 240.82 73.4578 241.182C72.9937 241.359 72.5008 241.45 72.0038 241.449V241.449ZM72.0038 236.096C71.8444 236.095 71.6863 236.123 71.5373 236.18V236.18C71.2378 236.294 70.9916 236.516 70.8466 236.801C70.7015 237.087 70.6681 237.416 70.7527 237.725C70.8374 238.033 71.0341 238.3 71.3045 238.472C71.5749 238.643 71.8996 238.709 72.2155 238.654C72.5314 238.6 72.8158 238.431 73.0133 238.178C73.2109 237.926 73.3073 237.61 73.284 237.29C73.2607 236.971 73.1192 236.672 72.8871 236.451C72.655 236.23 72.349 236.104 72.0286 236.096H72.0038Z" fill="#262424"/>
<path d="M148.922 59.9536C146.982 70.7849 142.814 83.5942 129.857 80.5604C114.473 76.9516 105.228 65.1933 106.22 50.3516C107.213 35.5099 114.691 27.6974 132.318 30.751C133.818 31.0077 135.293 31.3891 136.73 31.8912C146.739 35.4256 151.23 44.284 149.831 54.1537C149.602 55.9333 149.319 57.9063 148.922 59.9536Z" fill="#FFF5E6"/>
<path d="M133.539 82.3846C132.201 82.3716 130.869 82.2053 129.569 81.8889C123.455 80.4563 118.046 77.6803 113.932 73.8633C113.682 73.6105 113.54 73.2713 113.535 72.9164C113.53 72.5615 113.662 72.2182 113.904 71.9581C114.145 71.6981 114.478 71.5412 114.833 71.5203C115.188 71.4993 115.537 71.6159 115.808 71.8458C119.629 75.3901 124.472 77.8687 130.199 79.2121C133.782 80.0548 136.73 79.6384 139.211 77.9431C145.727 73.4816 147.528 60.7814 148.496 53.9505C150.094 42.6779 143.662 34.1219 132.119 32.0994C131.941 32.0668 131.771 31.9995 131.619 31.9013C131.467 31.8031 131.335 31.6759 131.232 31.527C131.129 31.3781 131.057 31.2104 131.019 31.0335C130.981 30.8565 130.978 30.6738 131.01 30.4957C131.043 30.3177 131.11 30.1478 131.209 29.9958C131.307 29.8437 131.434 29.7125 131.583 29.6097C131.732 29.5068 131.9 29.4342 132.077 29.3962C132.255 29.3581 132.437 29.3553 132.616 29.3878C145.558 31.6334 153.051 41.6617 151.255 54.3371C149.836 64.3704 147.736 75.4744 140.799 80.2184C138.662 81.6746 136.125 82.4316 133.539 82.3846V82.3846Z" fill="#262424"/>
<path d="M101.397 52.7756C102.731 55.0621 104.262 57.2282 105.972 59.2496L113.793 60.3402L115.897 54.8874C115.897 54.8874 120.904 55.046 122.189 51.7644C122.223 51.6886 122.251 51.6107 122.274 51.5314C122.621 50.4507 124.021 45.6175 123.862 37.924C123.862 37.924 135.444 44.1304 141.92 45.3151C144.248 45.7414 147.057 45.0524 149.707 43.9866C155.007 41.855 160.128 33.884 159.632 28.1932V28.0841C158.862 19.7363 154.123 25.1098 154.123 25.1098C154.123 25.1098 153.404 18.383 149.28 17.5849C145.156 16.7868 142.035 22.7155 142.035 22.7155C134.191 20.2457 125.953 19.2688 117.748 19.8354C101.476 21.0598 104.632 32.4315 104.632 32.4315C104.632 32.4315 92.5237 35.3314 101.397 52.7756Z" fill="#262424"/>
<path d="M112.15 59.3636C113.297 53.2267 109.386 47.1443 103.248 45.9794C101.946 45.7291 100.609 45.7291 99.3074 45.9794C91.4766 47.4665 92.1217 65.4659 111.004 65.5402L112.15 59.3636Z" fill="#FFF5E6"/>
<path d="M110.999 66.8737C99.5853 66.8291 93.8486 60.3452 93.2581 53.9455C92.8264 49.2412 95.2431 45.3002 99.0494 44.5864C100.525 44.3029 102.04 44.3029 103.516 44.5864C110.329 45.9 114.81 52.6368 113.51 59.5966C113.427 59.9384 113.216 60.2355 112.92 60.427C112.625 60.6185 112.267 60.6898 111.921 60.6264C111.575 60.5631 111.266 60.3698 111.057 60.0861C110.849 59.8025 110.757 59.45 110.801 59.1009C111.828 53.6481 108.319 48.329 102.99 47.3029C101.859 47.0859 100.696 47.0859 99.5655 47.3029C97.2033 47.7491 95.7046 50.4408 96.0024 53.7075C96.444 58.4912 100.637 64.1175 111.009 64.1175C111.375 64.1189 111.725 64.2653 111.983 64.5247C112.241 64.784 112.385 65.1351 112.384 65.5006C112.382 65.8661 112.236 66.2161 111.976 66.4736C111.716 66.7311 111.365 66.875 110.999 66.8737V66.8737Z" fill="#262424"/>
<path d="M516.579 298.997C514.898 298.996 513.233 299.326 511.68 299.969C510.127 300.611 508.715 301.552 507.526 302.74C506.337 303.927 505.394 305.336 504.751 306.888C504.107 308.439 503.776 310.102 503.776 311.781C503.777 310.102 503.446 308.44 502.803 306.888C502.16 305.337 501.217 303.927 500.029 302.74C498.84 301.553 497.429 300.611 495.876 299.969C494.323 299.326 492.659 298.996 490.978 298.997C492.659 298.997 494.323 298.666 495.877 298.023C497.43 297.38 498.841 296.438 500.029 295.251C501.218 294.063 502.16 292.653 502.803 291.101C503.446 289.55 503.777 287.887 503.776 286.207C503.776 289.599 505.125 292.852 507.526 295.251C509.927 297.649 513.184 298.997 516.579 298.997Z" fill="#262424"/>
<path d="M237.141 426.946C236.091 426.945 235.05 427.151 234.08 427.552C233.109 427.953 232.228 428.541 231.485 429.283C230.742 430.025 230.152 430.905 229.75 431.874C229.348 432.844 229.141 433.883 229.141 434.932C229.141 432.814 228.299 430.782 226.8 429.285C225.301 427.787 223.267 426.946 221.147 426.946C222.197 426.946 223.237 426.739 224.207 426.337C225.178 425.936 226.059 425.347 226.802 424.605C227.544 423.863 228.133 422.982 228.534 422.012C228.936 421.043 229.142 420.004 229.141 418.955C229.141 421.074 229.984 423.107 231.484 424.605C232.985 426.104 235.019 426.946 237.141 426.946Z" fill="#262424"/>
<path d="M228.923 36.4517C225.913 36.4517 223.025 37.646 220.896 39.772C218.767 41.8979 217.57 44.7815 217.569 47.7887C217.569 44.782 216.373 41.8984 214.245 39.7723C212.116 37.6462 209.23 36.4517 206.22 36.4517C209.23 36.4504 212.117 35.2549 214.245 33.128C216.373 31.0011 217.569 28.117 217.569 25.1098C217.57 28.1175 218.767 31.0016 220.896 33.1283C223.025 35.2551 225.912 36.4504 228.923 36.4517V36.4517Z" fill="#262424"/>
<path d="M26.3339 89.3296C29.7872 89.3296 32.5866 86.5332 32.5866 83.0836C32.5866 79.634 29.7872 76.8376 26.3339 76.8376C22.8806 76.8376 20.0811 79.634 20.0811 83.0836C20.0811 86.5332 22.8806 89.3296 26.3339 89.3296Z" fill="#262424"/>
</svg>
