<svg id="Camada_1" data-name="Camada 1" xmlns="http://www.w3.org/2000/svg" viewBox="0 0 349.66 265.36"><g id="g2214"><g id="path1801"><path d="M255.83,316.9H121.36a8.74,8.74,0,1,1,0-17.48H255.83c52.57,0,76.51-39.69,76.51-76.57,0-21.44-7.55-41.42-21.28-56.25C295.5,149.78,273,140.88,246,140.88H8.91a8.74,8.74,0,1,1,0-17.48H246c32,0,58.93,10.83,77.89,31.32,16.72,18.08,25.93,42.27,25.93,68.13,0,24.61-8.41,47.56-23.68,64.64C308.94,306.73,284.62,316.9,255.83,316.9Z" transform="translate(-0.17 -51.54)"/></g><g id="path1803"><path d="M82.35,212.74a8.73,8.73,0,0,1-6.11-2.49L2.8,138.39A8.74,8.74,0,1,1,15,125.89l73.44,71.86a8.74,8.74,0,0,1-6.12,15Z" transform="translate(-0.17 -51.54)"/></g><g id="path1805"><path d="M8.91,140.88a8.74,8.74,0,0,1-6.11-15L76.24,54a8.74,8.74,0,0,1,12.23,12.5L15,138.39A8.69,8.69,0,0,1,8.91,140.88Z" transform="translate(-0.17 -51.54)"/></g></g></svg>