<svg width="25" height="32" viewBox="0 0 25 32" fill="none" xmlns="http://www.w3.org/2000/svg">
<path d="M12.1905 0C8.44578 0 5.22701 2.29205 3.80952 5.55952C3.72121 5.74435 3.67106 5.94509 3.66208 6.14973C3.6531 6.35438 3.68547 6.55873 3.75725 6.75059C3.82903 6.94244 3.93876 7.11785 4.07986 7.26634C4.22097 7.41483 4.39057 7.53335 4.57851 7.61482C4.76646 7.69628 4.9689 7.73902 5.17374 7.74047C5.37858 7.74193 5.58161 7.70208 5.77069 7.62329C5.95978 7.54451 6.13104 7.42842 6.27425 7.28195C6.41746 7.13548 6.52966 6.96165 6.60417 6.77083C7.56383 4.55869 9.68146 3.04762 12.1905 3.04762C15.659 3.04762 18.2857 5.67438 18.2857 9.14286V10.6667H3.04762C1.37143 10.6667 0 12.0381 0 13.7143V28.9524C0 30.6286 1.37143 32 3.04762 32H21.3333C23.0095 32 24.381 30.6286 24.381 28.9524V13.7143C24.381 12.0381 23.0095 10.6667 21.3333 10.6667V9.14286C21.3333 4.078 17.2553 0 12.1905 0ZM12.1905 18.2857C13.8667 18.2857 15.2381 19.6571 15.2381 21.3333C15.2381 23.0095 13.8667 24.381 12.1905 24.381C10.5143 24.381 9.14286 23.0095 9.14286 21.3333C9.14286 19.6571 10.5143 18.2857 12.1905 18.2857Z" fill="#262424"/>
</svg>
