<svg width="48" height="48" viewBox="0 0 48 48" fill="none" xmlns="http://www.w3.org/2000/svg">
<path d="M24 0C10.7437 0 0 10.7437 0 24C0 37.2562 10.7437 48 24 48C37.2562 48 48 37.2562 48 24C47.9875 10.75 37.25 0.0125 24 0ZM24 45.75C11.9875 45.75 2.25 36.0125 2.25 24C2.25 11.9875 11.9875 2.25 24 2.25C36.0125 2.25 45.75 11.9875 45.75 24C45.7375 36.0062 36.0062 45.7375 24 45.75Z" fill="#E74C3C"/>
<path d="M34.5438 13.4187C34.3375 13.2124 34.0562 13.0874 33.75 13.0874C33.4438 13.0874 33.1562 13.2124 32.9562 13.4187L24 22.4062L15.05 13.4062C14.8438 13.1999 14.5625 13.0749 14.25 13.0749C13.625 13.0749 13.125 13.5812 13.125 14.1999C13.125 14.5124 13.25 14.7937 13.4563 14.9999L22.4125 23.9999L13.4563 32.9999C13.2563 33.2062 13.125 33.4874 13.125 33.7937C13.125 34.4124 13.6313 34.9187 14.25 34.9187C14.5625 34.9187 14.8438 34.7937 15.05 34.5874L24 25.5937L32.9562 34.5937C33.1625 34.7999 33.4437 34.9249 33.7562 34.9249C34.3812 34.9249 34.8812 34.4187 34.8812 33.7999C34.8812 33.4874 34.7562 33.2062 34.55 32.9999L25.5875 23.9999L34.5438 14.9999C34.7438 14.7999 34.8625 14.5187 34.8625 14.2124C34.8687 13.9062 34.7438 13.6249 34.5438 13.4187Z" fill="#E74C3C"/>
</svg>
