<?xml version="1.0" encoding="utf-8"?>
<!-- Generator: Adobe Illustrator 24.1.2, SVG Export Plug-In . SVG Version: 6.00 Build 0)  -->
<svg version="1.1" id="Camada_1" xmlns="http://www.w3.org/2000/svg" xmlns:xlink="http://www.w3.org/1999/xlink" x="0px" y="0px"
	 viewBox="0 0 70 70" style="enable-background:new 0 0 70 70;" xml:space="preserve">
<style type="text/css">
	.st0{fill:#27AE60;}
</style>
<g>
	<path class="st0" d="M35,69.5C16,69.5,0.5,54,0.5,35S16,0.5,35,0.5S69.5,16,69.5,35S54,69.5,35,69.5z M35,5.5
		C18.7,5.5,5.5,18.7,5.5,35c0,16.3,13.2,29.5,29.5,29.5c16.3,0,29.5-13.2,29.5-29.5C64.5,18.7,51.3,5.5,35,5.5z"/>
</g>
<g>
	<path class="st0" d="M35,50.3c-0.6,0-1.3-0.2-1.8-0.7L20.4,36.8c-1-1-1-2.6,0-3.5c1-1,2.6-1,3.5,0l11,11l11-11c1-1,2.6-1,3.5,0
		c1,1,1,2.6,0,3.5L36.8,49.6C36.3,50.1,35.6,50.3,35,50.3z"/>
</g>
<g>
	<path class="st0" d="M35,50.3c-1.4,0-2.5-1.1-2.5-2.5V22.2c0-1.4,1.1-2.5,2.5-2.5s2.5,1.1,2.5,2.5v25.6
		C37.5,49.2,36.4,50.3,35,50.3z"/>
</g>
</svg>
