<svg width="27" height="32" viewBox="0 0 27 32" fill="none" xmlns="http://www.w3.org/2000/svg">
<path d="M26.5414 15.3352L21.5596 10.3536C21.1923 9.9863 20.5979 9.9858 20.2305 10.3507C19.8622 10.7158 19.8588 11.3116 20.2222 11.6814L23.5463 15.0625H10.1643C9.64447 15.0625 9.22272 15.4799 9.22272 16C9.22272 16.5201 9.6445 16.9375 10.1643 16.9375H23.6022L20.2276 20.3143C19.8602 20.6818 19.8602 21.2795 20.2276 21.647C20.4115 21.8309 20.6527 21.9235 20.8935 21.9235C21.1344 21.9235 21.3756 21.8319 21.5595 21.648L26.5414 16.6665C26.7179 16.49 26.817 16.2505 26.817 16.0009C26.817 15.7513 26.718 15.5118 26.5414 15.3352Z" fill="#262424"/>
<path d="M19.25 24.611C18.7301 24.611 18.3125 25.0325 18.3125 25.5526V30.125H1.875V1.875H18.3125V6.44924C18.3125 6.96934 18.7301 7.39087 19.25 7.39087C19.7698 7.39087 20.1875 6.96934 20.1875 6.44924V0.934812C20.1875 0.414687 19.7597 0 19.2399 0H0.94078C0.420937 0 0 0.414687 0 0.934812V31.0671C0 31.5872 0.420937 32 0.940811 32H19.2399C19.7597 32 20.1875 31.5872 20.1875 31.0671V25.5526C20.1875 25.0325 19.7698 24.611 19.25 24.611Z" fill="#262424"/>
</svg>
