<?xml version="1.0" encoding="utf-8"?>
<!-- Generator: Adobe Illustrator 24.1.2, SVG Export Plug-In . SVG Version: 6.00 Build 0)  -->
<svg version="1.1" id="Camada_1" xmlns="http://www.w3.org/2000/svg" xmlns:xlink="http://www.w3.org/1999/xlink" x="0px" y="0px"
	 viewBox="0 0 40 70" style="enable-background:new 0 0 40 70;" xml:space="preserve">
<style type="text/css">
	.st0{fill:#F39C12;}
</style>
<g>
	<path class="st0" d="M20.1,69.5c-1.4,0-2.5-1.1-2.5-2.5V3c0-1.4,1.1-2.5,2.5-2.5c1.4,0,2.5,1.1,2.5,2.5v64
		C22.6,68.4,21.4,69.5,20.1,69.5z"/>
</g>
<g>
	<path class="st0" d="M27.2,57.4H3c-1.4,0-2.5-1.1-2.5-2.5s1.1-2.5,2.5-2.5h24.2c2,0,3.9-0.8,5.3-2.2c1.4-1.4,2.2-3.3,2.2-5.3
		c0-2-0.8-3.9-2.2-5.3c-1.4-1.4-3.3-2.2-5.3-2.2H13c-3.3,0-6.5-1.3-8.8-3.6c-2.4-2.4-3.6-5.5-3.6-8.8s1.3-6.5,3.6-8.8
		c2.4-2.4,5.5-3.6,8.8-3.6h21.3c1.4,0,2.5,1.1,2.5,2.5s-1.1,2.5-2.5,2.5H13c-2,0-3.9,0.8-5.3,2.2c-1.4,1.4-2.2,3.3-2.2,5.3
		s0.8,3.9,2.2,5.3c1.4,1.4,3.3,2.2,5.3,2.2h14.2c3.3,0,6.5,1.3,8.8,3.6c2.4,2.4,3.6,5.5,3.6,8.8c0,3.3-1.3,6.5-3.6,8.8
		C33.7,56.1,30.5,57.4,27.2,57.4z"/>
</g>
</svg>
