<svg width="33" height="32" viewBox="0 0 33 32" fill="none" xmlns="http://www.w3.org/2000/svg">
<path d="M20.0008 21.3329V18.6661C20.6009 18.3688 22.3169 16.326 22.4969 14.7299C22.969 14.6939 23.7103 14.2606 23.929 12.5499C24.0463 11.6312 23.5796 11.1151 23.297 10.9525C23.297 10.9525 24.001 9.61507 24.001 8.00033C24.001 4.76287 22.7303 2.00008 20.0008 2.00008C20.0008 2.00008 19.0528 0 16.0007 0C10.3444 0 8.00033 3.62815 8.00033 8.00033C8.00033 9.47239 8.70436 10.9525 8.70436 10.9525C8.42168 11.1151 7.955 11.6325 8.07234 12.5499C8.29101 14.2606 9.03238 14.6939 9.5044 14.7299C9.6844 16.326 11.4005 18.3688 12.0005 18.6661V21.3329C10.6671 25.3331 0 22.6663 0 32H32.0013C32.0013 22.6663 21.3342 25.3331 20.0008 21.3329Z" fill="#262424"/>
</svg>
